<svg width="90" height="139" viewBox="0 0 90 139" fill="none" xmlns="http://www.w3.org/2000/svg">
<path d="M85.0687 53.663L85.0704 53.6587C86.0525 51.1708 86.5428 48.5528 86.5428 45.8085V38.2376C86.5428 33.2498 85.5385 28.4859 83.5303 23.9503C81.5856 19.4137 78.7658 15.4283 75.075 11.9965C71.3823 8.56296 66.9502 5.84754 61.786 3.84641C56.6091 1.84037 50.8286 0.841797 44.4512 0.841797H5.44701C3.99632 0.841797 2.81647 1.20481 2.00283 2.01845C1.18918 2.8321 0.826172 4.01195 0.826172 5.46263V133.975C0.826172 135.397 1.19082 136.554 2.00701 137.352C2.82102 138.147 3.99924 138.5 5.44701 138.5H47.7095C52.7518 138.5 57.6966 137.627 62.5414 135.883C67.444 134.141 71.8359 131.752 75.7137 128.715L75.7177 128.711C79.5993 125.606 82.7086 121.948 85.0411 117.737C87.4478 113.508 88.6512 108.919 88.6512 103.979V91.2335C88.6512 87.7874 88.0333 84.6513 86.7885 81.8333C85.5588 78.986 84.0662 76.5168 82.3071 74.4312C80.6232 72.3593 78.8347 70.6661 76.9396 69.3584C75.5794 68.3736 74.373 67.6152 73.3242 67.0945C74.3641 66.5972 75.4785 65.8925 76.6662 64.9899L76.6685 64.9881C78.3681 63.6807 79.9319 62.0831 81.3612 60.1993C82.8591 58.2453 84.0946 56.0658 85.0687 53.663ZM49.2381 84.7446L49.2489 84.7579L49.2606 84.7705C50.0876 85.6565 50.4678 86.5617 50.4678 87.496V99.7626C50.4678 101.005 49.972 101.973 48.9521 102.71C47.9474 103.419 46.8662 103.767 45.697 103.767H37.3803V83.396H45.6012C47.3676 83.396 48.5367 83.8813 49.2381 84.7446ZM44.547 52.7835H37.3803V35.5751H44.547C45.7864 35.5751 46.8994 35.9271 47.9003 36.6336C48.7938 37.2643 49.3178 38.4692 49.3178 40.4418V47.821C49.3178 49.9511 48.8426 51.2178 48.0698 51.8374C47.296 52.4447 46.1448 52.7835 44.547 52.7835Z" fill="#C5C62E" stroke="black" stroke-width="1px" vector-effect="non-scaling-stroke"/>
</svg>
