<svg width="101" height="139" viewBox="0 0 101 139" fill="none" xmlns="http://www.w3.org/2000/svg">
<path d="M99.623 137.228L99.626 137.22L99.6287 137.213C99.9355 136.369 99.8751 135.228 99.5497 133.861C99.5496 133.86 99.5495 133.86 99.5494 133.859L69.7459 5.34967L69.743 5.33739L69.7395 5.32527C69.3392 3.92424 68.7259 2.81043 67.8717 2.02739C66.9807 1.21072 65.7226 0.841797 64.1796 0.841797H36.1963C34.7962 0.841797 33.6056 1.21074 32.6672 1.98668C31.7328 2.75935 31.0979 3.89478 30.7285 5.33872L30.7284 5.33869L30.7259 5.34967L0.922378 133.859C0.922275 133.86 0.922171 133.86 0.922067 133.861C0.596653 135.228 0.53622 136.369 0.843052 137.213L0.845764 137.22L0.84871 137.228C1.22009 138.156 2.16925 138.5 3.32545 138.5H34.7588C36.1825 138.5 37.4328 138.16 38.4861 137.458C39.5907 136.721 40.223 135.555 40.4292 134.043L40.4293 134.043L40.4306 134.031L41.6263 123.454H58.7496L59.9453 134.031L59.9472 134.048L59.9502 134.065C60.2238 135.569 60.8884 136.726 61.9856 137.458C63.0389 138.16 64.2892 138.5 65.713 138.5H97.1463C98.3025 138.5 99.2517 138.156 99.623 137.228ZM51.2232 58.1189L51.223 58.1189L51.2246 58.1322L54.9939 90.9251H45.3836L49.247 58.1336L49.248 58.1249L49.2488 58.1162L50.204 46.5257L51.2232 58.1189Z" fill="#C5C62E" stroke="black" stroke-width="1px" vector-effect="non-scaling-stroke"/>
</svg>
