<svg width="90" height="139" viewBox="0 0 90 139" fill="none" xmlns="http://www.w3.org/2000/svg">
<path d="M84.9594 53.663L84.961 53.6587C85.9431 51.1708 86.4335 48.5528 86.4335 45.8085V38.2376C86.4335 33.2498 85.4292 28.4859 83.421 23.9503C81.4763 19.4137 78.6564 15.4283 74.9656 11.9965C71.273 8.56296 66.8408 5.84754 61.6766 3.84641C56.4998 1.84037 50.7192 0.841797 44.3418 0.841797H5.33763C3.88695 0.841797 2.7071 1.20481 1.89345 2.01845C1.07981 2.8321 0.716797 4.01195 0.716797 5.46263V133.975C0.716797 135.397 1.08145 136.554 1.89764 137.352C2.71164 138.147 3.88986 138.5 5.33763 138.5H47.6001C52.6425 138.5 57.5872 137.627 62.432 135.883C67.3346 134.141 71.7266 131.752 75.6043 128.715L75.6083 128.711C79.4899 125.606 82.5992 121.948 84.9318 117.737C87.3384 113.508 88.5418 108.919 88.5418 103.979V91.2335C88.5418 87.7874 87.924 84.6513 86.6792 81.8333C85.4495 78.986 83.9568 76.5168 82.1977 74.4312C80.5138 72.3593 78.7254 70.6661 76.8303 69.3584C75.47 68.3736 74.2636 67.6152 73.2148 67.0945C74.2547 66.5972 75.3691 65.8925 76.5568 64.9899L76.5592 64.9881C78.2588 63.6807 79.8225 62.0831 81.2518 60.1993C82.7497 58.2453 83.9852 56.0658 84.9594 53.663ZM49.1287 84.7446L49.1396 84.7579L49.1513 84.7705C49.9782 85.6565 50.3585 86.5617 50.3585 87.496V99.7626C50.3585 101.005 49.8627 101.973 48.8428 102.71C47.838 103.419 46.7569 103.767 45.5876 103.767H37.271V83.396H45.4918C47.2582 83.396 48.4273 83.8813 49.1287 84.7446ZM44.4376 52.7835H37.271V35.5751H44.4376C45.6771 35.5751 46.79 35.9271 47.791 36.6336C48.6845 37.2643 49.2085 38.4692 49.2085 40.4418V47.821C49.2085 49.9511 48.7332 51.2178 47.9604 51.8374C47.1866 52.4447 46.0354 52.7835 44.4376 52.7835Z" fill="#C5C62E" stroke="black" stroke-width="1px" vector-effect="non-scaling-stroke"/>
</svg>
