<svg width="75" height="139" viewBox="0 0 75 139" fill="none" xmlns="http://www.w3.org/2000/svg">
<path d="M5.49597 0.841797C4.01619 0.841797 2.81398 1.2033 1.984 2.01441C1.1519 2.8276 0.779297 4.009 0.779297 5.46263V133.975C0.779297 135.4 1.15365 136.559 1.98823 137.356C2.81847 138.148 4.019 138.5 5.49597 138.5H69.9918C71.2133 138.5 72.2121 138.129 72.8915 137.314C73.5564 136.516 73.8459 135.374 73.8459 133.975V108.292C73.8459 106.893 73.5564 105.751 72.8915 104.953C72.2121 104.138 71.2133 103.767 69.9918 103.767H38.9626V87.0376H61.3668C62.6714 87.0376 63.7377 86.6749 64.4688 85.8668C65.1913 85.0683 65.5085 83.9197 65.5085 82.5126V57.1168C65.5085 55.6507 65.1935 54.4577 64.4765 53.6275C63.7473 52.7832 62.6784 52.4001 61.3668 52.4001H38.9626V35.5751H69.2251C70.3664 35.5751 71.2968 35.1936 71.9229 34.3719C72.5293 33.5759 72.7918 32.4411 72.7918 31.0501V5.46263C72.7918 4.04155 72.53 2.88477 71.9262 2.0735C71.3019 1.23453 70.3708 0.841797 69.2251 0.841797H5.49597Z" fill="#C5C62E" stroke="black" stroke-width="1px" vector-effect="non-scaling-stroke"/>
</svg>
