<svg width="75" height="139" viewBox="0 0 75 139" fill="none" xmlns="http://www.w3.org/2000/svg">
<path d="M5.66394 0.841797C4.18416 0.841797 2.98195 1.2033 2.15197 2.01441C1.31987 2.8276 0.947266 4.009 0.947266 5.46263V133.975C0.947266 135.4 1.32161 136.559 2.1562 137.356C2.98644 138.148 4.18697 138.5 5.66394 138.5H70.1598C71.3813 138.5 72.38 138.129 73.0595 137.314C73.7244 136.516 74.0139 135.374 74.0139 133.975V108.292C74.0139 106.893 73.7244 105.751 73.0595 104.953C72.38 104.138 71.3813 103.767 70.1598 103.767H39.1306V87.0376H61.5348C62.8393 87.0376 63.9057 86.6749 64.6368 85.8668C65.3592 85.0683 65.6764 83.9197 65.6764 82.5126V57.1168C65.6764 55.6507 65.3614 54.4577 64.6444 53.6275C63.9153 52.7832 62.8464 52.4001 61.5348 52.4001H39.1306V35.5751H69.3931C70.5344 35.5751 71.4648 35.1936 72.0908 34.3719C72.6973 33.5759 72.9598 32.4411 72.9598 31.0501V5.46263C72.9598 4.04155 72.698 2.88477 72.0942 2.0735C71.4699 1.23453 70.5388 0.841797 69.3931 0.841797H5.66394Z" fill="#8B3D11" stroke="black" stroke-width="1px" vector-effect="non-scaling-stroke"/>
</svg>
