<svg width="75" height="139" viewBox="0 0 75 139" fill="none" xmlns="http://www.w3.org/2000/svg">
<path d="M5.67175 0.841797C4.19197 0.841797 2.98975 1.2033 2.15978 2.01441C1.32768 2.8276 0.955078 4.009 0.955078 5.46263V133.975C0.955078 135.4 1.32942 136.559 2.16401 137.356C2.99424 138.148 4.19478 138.5 5.67175 138.5H70.1676C71.3891 138.5 72.3879 138.129 73.0673 137.314C73.7322 136.516 74.0217 135.374 74.0217 133.975V108.292C74.0217 106.893 73.7322 105.751 73.0673 104.953C72.3879 104.138 71.3891 103.767 70.1676 103.767H39.1384V87.0376H61.5426C62.8472 87.0376 63.9135 86.6749 64.6446 85.8668C65.3671 85.0683 65.6842 83.9197 65.6842 82.5126V57.1168C65.6842 55.6507 65.3693 54.4577 64.6522 53.6275C63.9231 52.7832 62.8542 52.4001 61.5426 52.4001H39.1384V35.5751H69.4009C70.5422 35.5751 71.4726 35.1936 72.0986 34.3719C72.7051 33.5759 72.9676 32.4411 72.9676 31.0501V5.46263C72.9676 4.04155 72.7058 2.88477 72.102 2.0735C71.4777 1.23453 70.5466 0.841797 69.4009 0.841797H5.67175Z" fill="#8B3D11" stroke="black" stroke-width="1px" vector-effect="non-scaling-stroke"/>
</svg>
