<svg width="90" height="139" viewBox="0 0 90 139" fill="none" xmlns="http://www.w3.org/2000/svg">
<path d="M51.7689 137.563L51.7799 137.575L51.7916 137.587C52.45 138.245 53.5523 138.5 54.9243 138.5H86.5493C87.1591 138.5 87.7068 138.375 88.1595 138.087C88.6134 137.798 88.931 137.371 89.1232 136.841C89.5468 135.844 89.5853 134.83 89.2305 133.824L75.4241 84.2165C79.0084 81.0799 81.9386 77.2636 84.2156 72.7731C86.6222 68.0893 87.816 62.5777 87.816 56.2543V39.3876C87.816 34.1378 86.6812 29.1755 84.4115 24.5065C82.147 19.8481 79.073 15.7712 75.1922 12.2785C71.3114 8.78579 66.7554 6.00836 61.5298 3.94379C56.356 1.87445 50.7985 0.841797 44.8618 0.841797H5.57018C4.0904 0.841797 2.88818 1.2033 2.05821 2.01441C1.22611 2.8276 0.853516 4.009 0.853516 5.46263V133.975C0.853516 135.4 1.22786 136.559 2.06244 137.356C2.89267 138.148 4.09321 138.5 5.57018 138.5H34.416C35.8638 138.5 37.042 138.147 37.856 137.352C38.6722 136.554 39.0368 135.397 39.0368 133.975V95.7585H42.9194L50.6931 134.248C50.7909 135.024 50.9228 135.688 51.0929 136.233C51.2628 136.776 51.4807 137.233 51.7689 137.563ZM48.2035 59.9751L48.1973 59.9798L48.1912 59.9847C47.3381 60.6672 46.241 61.0251 44.8618 61.0251H39.0368V35.5751H44.766C46.0151 35.5751 47.134 35.9007 48.1361 36.5491C49.0584 37.1459 49.5368 38.0607 49.5368 39.3876V57.3085C49.5368 58.4289 49.0998 59.3029 48.2035 59.9751Z" fill="#8B3D11" stroke="black" stroke-width="1px" vector-effect="non-scaling-stroke"/>
</svg>
