<svg width="91" height="139" viewBox="0 0 91 139" fill="none" xmlns="http://www.w3.org/2000/svg">
<path d="M5.16966 0.841797C3.71898 0.841797 2.53913 1.20481 1.72548 2.01845C0.911838 2.8321 0.548828 4.01195 0.548828 5.46263V133.975C0.548828 135.397 0.91348 136.554 1.72967 137.352C2.54368 138.147 3.72189 138.5 5.16966 138.5H34.0155C35.4925 138.5 36.693 138.148 37.5232 137.356C38.3578 136.559 38.7322 135.4 38.7322 133.975V84.8335H51.2447V133.975C51.2447 135.4 51.619 136.559 52.4536 137.356C53.2838 138.148 54.4844 138.5 55.9613 138.5H84.328C85.9531 138.5 87.2652 138.154 88.1753 137.374C89.1001 136.581 89.5238 135.416 89.5238 133.975V5.27097C89.5238 3.54438 89.0248 2.23533 87.8103 1.66124C86.8121 1.13049 85.8713 0.841797 84.9988 0.841797H55.9613C54.4548 0.841797 53.2411 1.29086 52.4171 2.26466C51.6381 3.18533 51.2447 4.25804 51.2447 5.46263V50.1001H38.7322V5.46263C38.7322 4.009 38.3596 2.8276 37.5275 2.01441C36.6975 1.2033 35.4953 0.841797 34.0155 0.841797H5.16966Z" fill="#8B3D11" stroke="black" stroke-width="1px" vector-effect="non-scaling-stroke"/>
</svg>
